<svg xmlns="http://www.w3.org/2000/svg" xmlns:xlink="http://www.w3.org/1999/xlink" width="125" height="125" viewBox="0 0 125 125"><defs><path id="9o1pa" d="M896.25 2639.49a62.24 62.24 0 1 1 0-124.48 62.24 62.24 0 0 1 0 124.48zm0-118.82a56.58 56.58 0 1 0 0 113.16 56.58 56.58 0 0 0 0-113.16z"/><path id="9o1pb" d="M896.43 2569.48a11.46 11.46 0 1 1 0 22.93 11.46 11.46 0 0 1 0-22.93zm28.2-4.4v31.73a3.54 3.54 0 0 1-3.52 3.53h-49.37a3.54 3.54 0 0 1-3.52-3.53v-31.73a3.54 3.54 0 0 1 3.52-3.53h12.34c.89-3.52 1.77-7.05 5.3-7.05h14.1c3.52 0 4.4 3.53 5.29 7.05h12.34a3.54 3.54 0 0 1 3.52 3.53zm-12.56 15.87a15.65 15.65 0 1 0-31.3 0 15.65 15.65 0 0 0 31.3 0zm9.04-12.35h-7.05v3.53h7.05z"/></defs><g><g transform="translate(-834 -2515)"><use fill="#fcac45" xlink:href="#9o1pa"/></g><g transform="translate(-834 -2515)"><use xlink:href="#9o1pb"/></g></g></svg>